<svg width="295" height="73" viewBox="0 0 295 73" fill="none" xmlns="http://www.w3.org/2000/svg">
<rect x="1.5" y="1.5" width="261" height="70" rx="18.5" stroke="#B5C2BE" stroke-width="3"/>
<path d="M219.953 21.7812H210.156C209.873 21.7812 209.641 22.0203 209.641 22.3125V32.4062C209.641 32.6984 209.873 32.9375 210.156 32.9375H219.953C220.237 32.9375 220.469 32.6984 220.469 32.4062V22.3125C220.469 22.0203 220.237 21.7812 219.953 21.7812ZM218.277 30.6797H211.832V24.0391H218.277V30.6797ZM232.844 21.7812H223.047C222.763 21.7812 222.531 22.0203 222.531 22.3125V32.4062C222.531 32.6984 222.763 32.9375 223.047 32.9375H232.844C233.127 32.9375 233.359 32.6984 233.359 32.4062V22.3125C233.359 22.0203 233.127 21.7812 232.844 21.7812ZM231.168 30.6797H224.723V24.0391H231.168V30.6797ZM232.844 35.0625H223.047C222.763 35.0625 222.531 35.3016 222.531 35.5938V45.6875C222.531 45.9797 222.763 46.2188 223.047 46.2188H232.844C233.127 46.2188 233.359 45.9797 233.359 45.6875V35.5938C233.359 35.3016 233.127 35.0625 232.844 35.0625ZM231.168 43.9609H224.723V37.3203H231.168V43.9609ZM218.664 40.6406H214.539V36.3906C214.539 36.2445 214.423 36.125 214.281 36.125H212.734C212.593 36.125 212.477 36.2445 212.477 36.3906V40.6406H208.352C208.21 40.6406 208.094 40.7602 208.094 40.9062V42.5C208.094 42.6461 208.21 42.7656 208.352 42.7656H212.477V47.0156C212.477 47.1617 212.593 47.2812 212.734 47.2812H214.281C214.423 47.2812 214.539 47.1617 214.539 47.0156V42.7656H218.664C218.806 42.7656 218.922 42.6461 218.922 42.5V40.9062C218.922 40.7602 218.806 40.6406 218.664 40.6406Z" fill="#B5C2BE"/>
<path d="M36.2393 24.1367L45.3799 44H42.0547L39.0957 37.5254H30.7607L27.6992 44H26.0586L35.4189 24.1367H36.2393ZM31.332 36.2656H38.4951L34.9648 28.5752L31.332 36.2656ZM48.0898 24.5762H54.5645C56.5566 24.5762 58.2705 24.7617 59.7061 25.1328C61.1416 25.5039 62.3379 26.0996 63.2949 26.9199C64.3887 27.8574 65.209 28.9316 65.7559 30.1426C66.3125 31.3535 66.5908 32.6768 66.5908 34.1123C66.5908 35.4795 66.3418 36.7637 65.8438 37.9648C65.3555 39.166 64.6328 40.2158 63.6758 41.1143C62.7285 42.0029 61.5518 42.7061 60.1455 43.2236C58.749 43.7412 57.1475 44 55.3408 44H48.0898V24.5762ZM51.3564 42.5791H54.8281C55.9219 42.5791 56.9521 42.3984 57.9189 42.0371C58.8857 41.6758 59.7256 41.1387 60.4385 40.4258C61.1611 39.7129 61.7275 38.8389 62.1377 37.8037C62.5576 36.7588 62.7676 35.5527 62.7676 34.1855C62.7676 32.9844 62.5723 31.8857 62.1816 30.8896C61.791 29.8838 61.2441 29.0195 60.541 28.2969C59.8379 27.5742 58.998 27.0127 58.0215 26.6123C57.0547 26.2119 55.9951 26.0117 54.8428 26.0117H51.3564V42.5791ZM71 24.5762H77.4746C79.4668 24.5762 81.1807 24.7617 82.6162 25.1328C84.0518 25.5039 85.248 26.0996 86.2051 26.9199C87.2988 27.8574 88.1191 28.9316 88.666 30.1426C89.2227 31.3535 89.501 32.6768 89.501 34.1123C89.501 35.4795 89.252 36.7637 88.7539 37.9648C88.2656 39.166 87.543 40.2158 86.5859 41.1143C85.6387 42.0029 84.4619 42.7061 83.0557 43.2236C81.6592 43.7412 80.0576 44 78.251 44H71V24.5762ZM74.2666 42.5791H77.7383C78.832 42.5791 79.8623 42.3984 80.8291 42.0371C81.7959 41.6758 82.6357 41.1387 83.3486 40.4258C84.0713 39.7129 84.6377 38.8389 85.0479 37.8037C85.4678 36.7588 85.6777 35.5527 85.6777 34.1855C85.6777 32.9844 85.4824 31.8857 85.0918 30.8896C84.7012 29.8838 84.1543 29.0195 83.4512 28.2969C82.748 27.5742 81.9082 27.0127 80.9316 26.6123C79.9648 26.2119 78.9053 26.0117 77.7529 26.0117H74.2666V42.5791ZM100.062 24.5762H106.215C107.23 24.5762 108.183 24.6982 109.071 24.9424C109.96 25.1865 110.731 25.5479 111.386 26.0264C112.05 26.4951 112.567 27.0762 112.938 27.7695C113.319 28.4531 113.51 29.2393 113.51 30.1279C113.51 31.0068 113.324 31.7734 112.953 32.4277C112.592 33.082 112.108 33.624 111.503 34.0537C110.907 34.4834 110.229 34.8057 109.467 35.0205C108.705 35.2256 107.929 35.3281 107.138 35.3281C106.796 35.3281 106.439 35.3232 106.068 35.3135C105.697 35.2939 105.341 35.2695 104.999 35.2402C104.657 35.2109 104.34 35.1768 104.047 35.1377C103.754 35.0986 103.515 35.0596 103.329 35.0205V44H100.062V24.5762ZM103.329 33.9219C103.7 34.0488 104.096 34.1562 104.516 34.2441C104.936 34.3223 105.365 34.3613 105.805 34.3613C106.508 34.3613 107.123 34.2588 107.65 34.0537C108.178 33.8389 108.617 33.5508 108.969 33.1895C109.32 32.8184 109.579 32.3887 109.745 31.9004C109.921 31.4023 110.009 30.875 110.009 30.3184C110.009 29.6641 109.896 29.0732 109.672 28.5459C109.447 28.0186 109.135 27.5693 108.734 27.1982C108.344 26.8174 107.88 26.5244 107.343 26.3193C106.815 26.1143 106.249 26.0117 105.644 26.0117H103.329V33.9219ZM127.25 44.4541C125.746 44.4541 124.34 44.1855 123.031 43.6484C121.732 43.1113 120.6 42.3789 119.633 41.4512C118.676 40.5137 117.919 39.4248 117.362 38.1846C116.815 36.9346 116.542 35.6016 116.542 34.1855C116.542 33.2578 116.664 32.3643 116.908 31.5049C117.162 30.6455 117.519 29.8447 117.978 29.1025C118.437 28.3604 118.988 27.6865 119.633 27.0811C120.287 26.4658 121.01 25.9434 121.801 25.5137C122.592 25.0742 123.446 24.7373 124.364 24.5029C125.282 24.2588 126.244 24.1367 127.25 24.1367C128.256 24.1367 129.218 24.2588 130.136 24.5029C131.054 24.7373 131.908 25.0742 132.699 25.5137C133.5 25.9434 134.223 26.4658 134.867 27.0811C135.512 27.6865 136.063 28.3604 136.522 29.1025C136.991 29.8447 137.348 30.6455 137.592 31.5049C137.846 32.3643 137.973 33.2578 137.973 34.1855C137.973 35.123 137.846 36.0312 137.592 36.9102C137.348 37.7793 136.991 38.5947 136.522 39.3564C136.063 40.1182 135.512 40.8115 134.867 41.4365C134.223 42.0615 133.5 42.5986 132.699 43.0479C131.908 43.4971 131.054 43.8438 130.136 44.0879C129.218 44.332 128.256 44.4541 127.25 44.4541ZM127.25 43.4873C128.363 43.4873 129.345 43.2578 130.194 42.7988C131.054 42.3301 131.776 41.6807 132.362 40.8506C132.948 40.0205 133.388 39.0391 133.681 37.9062C133.983 36.7734 134.135 35.5332 134.135 34.1855C134.135 32.8477 133.983 31.6221 133.681 30.5088C133.388 29.3955 132.948 28.4385 132.362 27.6377C131.776 26.8271 131.054 26.2021 130.194 25.7627C129.345 25.3135 128.363 25.0889 127.25 25.0889C126.117 25.0889 125.121 25.3135 124.262 25.7627C123.412 26.2021 122.694 26.8271 122.108 27.6377C121.532 28.4385 121.098 29.3955 120.805 30.5088C120.512 31.6221 120.365 32.8477 120.365 34.1855C120.365 35.5332 120.512 36.7734 120.805 37.9062C121.098 39.0391 121.532 40.0205 122.108 40.8506C122.694 41.6807 123.412 42.3301 124.262 42.7988C125.121 43.2578 126.117 43.4873 127.25 43.4873ZM148.725 43.2236C149.203 43.2236 149.677 43.1602 150.146 43.0332C150.614 42.8965 151.034 42.7012 151.405 42.4473C151.776 42.1836 152.074 41.8662 152.299 41.4951C152.523 41.1143 152.636 40.6748 152.636 40.1768C152.636 39.5811 152.479 39.0537 152.167 38.5947C151.864 38.126 151.464 37.7012 150.966 37.3203C150.468 36.9297 149.896 36.5635 149.252 36.2217C148.617 35.8799 147.968 35.5381 147.304 35.1963C146.64 34.8545 145.985 34.498 145.341 34.127C144.706 33.7461 144.14 33.3262 143.642 32.8672C143.144 32.3984 142.738 31.8809 142.426 31.3145C142.123 30.7383 141.972 30.0791 141.972 29.3369C141.972 28.5947 142.108 27.9062 142.382 27.2715C142.665 26.6367 143.075 26.0898 143.612 25.6309C144.149 25.1621 144.809 24.7959 145.59 24.5322C146.381 24.2686 147.284 24.1367 148.3 24.1367C149.218 24.1367 150.038 24.2344 150.761 24.4297C151.483 24.625 152.118 24.9131 152.665 25.2939C153.212 25.6748 153.676 26.1436 154.057 26.7002C154.438 27.2568 154.745 27.9014 154.979 28.6338L153.31 29.3955C153.114 28.7998 152.865 28.2578 152.562 27.7695C152.26 27.2715 151.898 26.8467 151.479 26.4951C151.059 26.1436 150.57 25.875 150.014 25.6895C149.467 25.4941 148.847 25.3965 148.153 25.3965C147.538 25.3965 147.001 25.4844 146.542 25.6602C146.083 25.8262 145.697 26.0508 145.385 26.334C145.082 26.6074 144.853 26.9199 144.696 27.2715C144.55 27.6133 144.477 27.9648 144.477 28.3262C144.477 28.834 144.633 29.3027 144.945 29.7324C145.258 30.1523 145.673 30.5527 146.19 30.9336C146.708 31.3047 147.294 31.666 147.948 32.0176C148.612 32.3691 149.286 32.7256 149.97 33.0869C150.653 33.4482 151.322 33.8242 151.977 34.2148C152.641 34.6055 153.231 35.0352 153.749 35.5039C154.267 35.9629 154.682 36.4707 154.994 37.0273C155.307 37.5742 155.463 38.1895 155.463 38.873C155.463 39.6445 155.316 40.3721 155.023 41.0557C154.73 41.7295 154.291 42.3203 153.705 42.8281C153.119 43.3262 152.392 43.7217 151.522 44.0146C150.653 44.3076 149.643 44.4541 148.49 44.4541C147.553 44.4541 146.718 44.3516 145.985 44.1465C145.253 43.9414 144.604 43.6436 144.037 43.2529C143.48 42.8623 143.002 42.3887 142.602 41.832C142.201 41.2656 141.874 40.6211 141.62 39.8984L143.363 39.1807C143.568 39.8154 143.842 40.3818 144.184 40.8799C144.535 41.3779 144.94 41.8027 145.399 42.1543C145.858 42.4961 146.366 42.7598 146.923 42.9453C147.489 43.1309 148.09 43.2236 148.725 43.2236ZM175.268 24.5762V25.8359H168.236V44H164.97V25.8359H157.938V24.5762H175.268Z" fill="#B5C2BE"/>
</svg>
