<svg width="31" height="31" viewBox="0 0 31 31" fill="none" xmlns="http://www.w3.org/2000/svg">
<path d="M21.7 18.6V24.8M9.3 6.19999V3.09999C9.3 2.55188 9.51774 2.02621 9.90531 1.63864C10.2929 1.25106 10.8186 1.03333 11.3667 1.03333H19.6333C20.1814 1.03333 20.7071 1.25106 21.0947 1.63864C21.4823 2.02621 21.7 2.55188 21.7 3.09999V6.19999H9.3ZM0 7.23333H31H0ZM3.1 7.23333V27.9C3.1 28.4481 3.31774 28.9738 3.70531 29.3613C4.09289 29.7489 4.61855 29.9667 5.16667 29.9667H25.8333C26.3814 29.9667 26.9071 29.7489 27.2947 29.3613C27.6823 28.9738 27.9 28.4481 27.9 27.9V7.23333H3.1ZM15.5 14.4667V24.8V14.4667ZM9.3 18.6V24.8V18.6Z" stroke="#003221"/>
</svg>
