<svg width="143" height="143" viewBox="0 0 143 143" fill="none" xmlns="http://www.w3.org/2000/svg">
<rect x="3.20605" y="3.01392" width="136.955" height="136.955" rx="68.4775" fill="#B5C2BE" stroke="#EEEAE4" stroke-width="5" stroke-dasharray="10 10"/>
<path d="M43.2925 90.419H66.9517V95.1508H43.2925V90.419ZM43.2925 76.2234H66.9517V80.9553H43.2925V76.2234ZM95.3427 66.7598H48.0243C46.7694 66.7598 45.5658 66.2612 44.6784 65.3738C43.791 64.4865 43.2925 63.2829 43.2925 62.0279V47.8324C43.2925 46.5775 43.791 45.3739 44.6784 44.4865C45.5658 43.5991 46.7694 43.1006 48.0243 43.1006H95.3427C96.5976 43.1006 97.8012 43.5991 98.6886 44.4865C99.576 45.3739 100.075 46.5775 100.075 47.8324V62.0279C100.075 63.2829 99.576 64.4865 98.6886 65.3738C97.8012 66.2612 96.5976 66.7598 95.3427 66.7598ZM48.0243 47.8324V62.0279H95.3427V47.8324H48.0243ZM95.3427 99.8826H81.1472C79.8922 99.8826 78.6887 99.3841 77.8013 98.4967C76.9139 97.6093 76.4153 96.4058 76.4153 95.1508V80.9553C76.4153 79.7003 76.9139 78.4968 77.8013 77.6094C78.6887 76.722 79.8922 76.2234 81.1472 76.2234H95.3427C96.5976 76.2234 97.8012 76.722 98.6886 77.6094C99.576 78.4968 100.075 79.7003 100.075 80.9553V95.1508C100.075 96.4058 99.576 97.6093 98.6886 98.4967C97.8012 99.3841 96.5976 99.8826 95.3427 99.8826ZM81.1472 80.9553V95.1508H95.3427V80.9553H81.1472Z" fill="#EEEAE4"/>
</svg>
