<svg width="82" height="82" viewBox="0 0 82 82" fill="none" xmlns="http://www.w3.org/2000/svg">
<path d="M12.8125 35.875C12.1329 35.875 11.4811 35.605 11.0005 35.1245C10.52 34.6439 10.25 33.9921 10.25 33.3125V12.8176C10.25 12.138 10.52 11.4862 11.0005 11.0057C11.4811 10.5251 12.1329 10.2551 12.8125 10.2551H33.3125C33.9921 10.2551 34.6439 10.5251 35.1245 11.0057C35.605 11.4862 35.875 12.138 35.875 12.8176V33.3125C35.875 33.9921 35.605 34.6439 35.1245 35.1245C34.6439 35.605 33.9921 35.875 33.3125 35.875H12.8125ZM48.6875 35.875C48.0079 35.875 47.3561 35.605 46.8755 35.1245C46.395 34.6439 46.125 33.9921 46.125 33.3125V12.8176C46.125 12.138 46.395 11.4862 46.8755 11.0057C47.3561 10.5251 48.0079 10.2551 48.6875 10.2551H69.1824C69.862 10.2551 70.5138 10.5251 70.9943 11.0057C71.4749 11.4862 71.7449 12.138 71.7449 12.8176V33.3125C71.7449 33.9921 71.4749 34.6439 70.9943 35.1245C70.5138 35.605 69.862 35.875 69.1824 35.875H48.6875ZM12.8125 71.75C12.1329 71.75 11.4811 71.48 11.0005 70.9995C10.52 70.5189 10.25 69.8671 10.25 69.1875V48.6875C10.25 48.0079 10.52 47.3561 11.0005 46.8755C11.4811 46.395 12.1329 46.125 12.8125 46.125H33.3125C33.9921 46.125 34.6439 46.395 35.1245 46.8755C35.605 47.3561 35.875 48.0079 35.875 48.6875V69.1875C35.875 69.8671 35.605 70.5189 35.1245 70.9995C34.6439 71.48 33.9921 71.75 33.3125 71.75H12.8125ZM48.6875 71.75C48.0079 71.75 47.3561 71.48 46.8755 70.9995C46.395 70.5189 46.125 69.8671 46.125 69.1875V48.6875C46.125 48.0079 46.395 47.3561 46.8755 46.8755C47.3561 46.395 48.0079 46.125 48.6875 46.125H69.1824C69.862 46.125 70.5138 46.395 70.9943 46.8755C71.4749 47.3561 71.7449 48.0079 71.7449 48.6875V69.1875C71.7449 69.8671 71.4749 70.5189 70.9943 70.9995C70.5138 71.48 69.862 71.75 69.1824 71.75H48.6875Z" fill="#003221"/>
</svg>
